<svg xmlns="http://www.w3.org/2000/svg" width="160" height="40" viewBox="0 0 160 40">
  <g id="Gruppe_3" data-name="Gruppe 3" transform="translate(-230 -10)">
    <rect id="Rechteck_1" data-name="Rechteck 1" width="160" height="40" transform="translate(230 10)" fill="#393e46"/>
    <path id="Pfad_8" data-name="Pfad 8" d="M15.3-14.4H1.3l-.02.48H7.22V0H9.3V-13.92h6ZM20.64-.5V-7.32H24.8v-.5H20.64v-6.1h6.34v-.48h-8.4V0h8.36V-.5h-6.3ZM32.62-5.76l2.46-6.04L37.6-5.76Zm6.24,3.12s.32.78,1.08,2.64H42.2L36.08-14.4h-.42L29.7,0h.76l2.02-5.28h5.3ZM46.02-.76a1.14,1.14,0,0,0,.32.78,1.057,1.057,0,0,0,.78.32A1.057,1.057,0,0,0,47.9.02a1.026,1.026,0,0,0,.32-.78.984.984,0,0,0-.32-.76,1.057,1.057,0,0,0-.78-.32,1.057,1.057,0,0,0-.78.32A1.058,1.058,0,0,0,46.02-.76ZM64.5-2.52a3.784,3.784,0,0,1-1.58,1.4,5.421,5.421,0,0,1-2.28.54,4.423,4.423,0,0,1-3.5-1.66,7.27,7.27,0,0,1-1.4-4.8,8.481,8.481,0,0,1,1.28-5.06,4.1,4.1,0,0,1,3.48-1.78,5.093,5.093,0,0,1,3.2,1.1,3.507,3.507,0,0,1,.78.84l.4-.38v-.06a5.92,5.92,0,0,0-1.86-1.38,6.222,6.222,0,0,0-2.82-.64,7.008,7.008,0,0,0-3.46.88,5.8,5.8,0,0,0-2.46,2.7,8.619,8.619,0,0,0-.88,3.88A6.881,6.881,0,0,0,55.3-1.9,6.726,6.726,0,0,0,60.22,0,5.993,5.993,0,0,0,64.9-2.1Zm4.56-4.7a7.954,7.954,0,0,1,1.32-4.98,3.788,3.788,0,0,1,3.38-1.68,4.176,4.176,0,0,1,3.66,1.72c.9,1.14,1.1,2.8,1.1,4.96,0,2.22-.22,3.88-1.12,5A4.059,4.059,0,0,1,73.92-.52,3.933,3.933,0,0,1,70.38-2.2,8,8,0,0,1,69.06-7.22ZM66.7-7.3A6.973,6.973,0,0,0,68.82-2a6.5,6.5,0,0,0,4.96,2A6.481,6.481,0,0,0,78.8-2a6.9,6.9,0,0,0,2.08-5.22,6.636,6.636,0,0,0-2.18-5.26,6.708,6.708,0,0,0-4.94-1.92,6.554,6.554,0,0,0-4.9,1.94A6.616,6.616,0,0,0,66.7-7.3ZM97.42,0H99.5V-14.4H97.52L92.26-2.46,86.98-14.4h-2V0h.48V-13.02L91.18,0h.5l5.74-13.02V0Z" transform="translate(259 35)" fill="#ecf1f7"/>
  </g>
</svg>
